<svg width="1638" height="1586" viewBox="0 0 1638 1586" fill="none" xmlns="http://www.w3.org/2000/svg">
<g style="mix-blend-mode:luminosity" opacity="0.3">
<path opacity="0.92" d="M827 1478L1086.5 1163L1391.5 420.5L1144.5 1417L827 1478Z" fill="#EBEBEB"/>
<path opacity="0.43" d="M243.185 1083.23L551.272 346.044L719.793 637.93L243.185 1083.23Z" fill="#FD5956"/>
<path opacity="0.43" d="M1391.59 420.202L924.193 881.456L761.657 599.937L1391.59 420.202Z" fill="#EEBB98"/>
<path opacity="0.63" d="M1391.59 420.202L1086.73 1162.98L924.193 881.456L1391.59 420.202Z" fill="#FFE3D0"/>
<path opacity="0.43" d="M1391.59 420.202L551.272 346.044L707.131 616L1391.59 420.202Z" fill="#D8600F"/>
<path opacity="0.43" d="M243.185 1083.24L924.193 881.456L761.657 599.937L243.185 1083.24Z" fill="#EAAA7F"/>
<path opacity="0.43" d="M243.185 1083.24L1086.73 1162.98L924.193 881.456L243.185 1083.24Z" fill="#EEBB98"/>
<path opacity="0.63" d="M243 1083.5L1086.5 1163L827 1478L243 1083.5Z" fill="#C0C0C0"/>
<path d="M243 1083.5L827 1478L827.5 1542.5L243 1083.5Z" fill="#C0C0C0"/>
<g filter="url(#filter0_f_506_9)">
<path d="M758 1278.23C758 1287.32 721.355 1285.8 701.928 1313.38C692.959 1326.12 641 1314.46 641 1305.37C641 1296.28 679.488 1268 708.992 1268C738.497 1268 758 1269.14 758 1278.23Z" fill="#131313" fill-opacity="0.3"/>
</g>
<path d="M1144.5 1417L827.5 1542.5L827 1478L1144.5 1417Z" fill="#DADADA"/>
</g>
<defs>
<filter id="filter0_f_506_9" x="637" y="1264" width="125" height="59" filterUnits="userSpaceOnUse" color-interpolation-filters="sRGB">
<feFlood flood-opacity="0" result="BackgroundImageFix"/>
<feBlend mode="normal" in="SourceGraphic" in2="BackgroundImageFix" result="shape"/>
<feGaussianBlur stdDeviation="2" result="effect1_foregroundBlur_506_9"/>
</filter>
</defs>
</svg>
